<?xml version="1.0" standalone="no"?>
<!DOCTYPE svg PUBLIC "-//W3C//DTD SVG 20010904//EN"
 "http://www.w3.org/TR/2001/REC-SVG-20010904/DTD/svg10.dtd">
<svg version="1.0" xmlns="http://www.w3.org/2000/svg"
 width="388.000000pt" height="388.000000pt" viewBox="0 0 388.000000 388.000000"
 preserveAspectRatio="xMidYMid meet">
<metadata>
Created by potrace 1.11, written by Peter Selinger 2001-2013
</metadata>
<g transform="translate(0.000000,388.000000) scale(0.100000,-0.100000)"
fill="#000000" stroke="none">
<path d="M1537 3586 c-9 -14 -25 -40 -36 -58 -10 -18 -35 -62 -56 -98 -21 -36
-46 -81 -57 -100 -87 -152 -388 -674 -460 -798 -49 -84 -100 -172 -112 -195
-13 -23 -123 -214 -245 -425 -122 -211 -221 -386 -221 -389 0 -4 -6 -14 -14
-22 -8 -9 -26 -38 -40 -66 -15 -27 -31 -57 -37 -65 -37 -59 -249 -435 -249
-441 0 -5 52 -99 116 -210 64 -111 125 -218 136 -238 11 -20 44 -77 74 -127
l53 -91 1533 -1 c843 0 1540 2 1549 4 9 3 46 55 83 117 36 62 124 211 195 332
l129 220 -18 30 c-9 17 -61 107 -115 200 -54 94 -128 222 -165 285 -77 133
-226 391 -621 1075 -343 596 -345 599 -377 655 -13 25 -44 77 -67 115 -23 39
-73 125 -111 192 l-69 121 -391 2 -391 1 -16 -25z"/>
</g>
</svg>
