<?xml version="1.0" standalone="no"?>
<!DOCTYPE svg PUBLIC "-//W3C//DTD SVG 20010904//EN"
 "http://www.w3.org/TR/2001/REC-SVG-20010904/DTD/svg10.dtd">
<svg version="1.0" xmlns="http://www.w3.org/2000/svg"
 width="214.000000pt" height="214.000000pt" viewBox="0 0 214.000000 214.000000"
 preserveAspectRatio="xMidYMid meet">
<metadata>
Created by potrace 1.11, written by Peter Selinger 2001-2013
</metadata>
<g transform="translate(0.000000,214.000000) scale(0.100000,-0.100000)"
fill="#000000" stroke="none">
<path d="M1033 2106 c-24 -31 -800 -477 -836 -480 -42 -3 -52 -19 -39 -63 15
-54 15 -949 -1 -981 -15 -32 1 -56 44 -63 19 -3 122 -57 229 -120 107 -63 286
-168 398 -234 111 -65 202 -123 202 -129 0 -6 9 -17 20 -24 23 -14 60 -1 60
21 0 7 44 37 98 69 53 31 234 136 402 234 168 98 320 180 339 183 43 7 61 33
43 61 -17 28 -18 938 0 986 14 40 -3 69 -36 60 -27 -7 -842 459 -849 486 -7
26 -51 23 -74 -6z m246 -413 l199 -343 -404 0 c-382 0 -404 1 -395 18 5 9 64
112 131 227 67 116 152 263 189 327 36 65 69 116 73 115 4 -1 97 -156 207
-344z m-278 320 c-42 -80 -365 -631 -374 -640 -9 -9 -54 13 -190 92 -99 56
-183 107 -188 112 -8 8 207 138 531 321 19 11 78 45 130 75 52 31 96 56 98 57
1 0 -2 -8 -7 -17z m530 -210 c208 -119 376 -220 374 -224 -8 -12 -361 -209
-376 -209 -8 0 -82 118 -174 277 -88 151 -173 298 -188 324 -16 27 -25 49 -21
49 4 0 177 -98 385 -217z m-1158 -352 c84 -48 167 -96 185 -105 17 -9 32 -23
32 -31 0 -11 -360 -646 -376 -664 -2 -2 -4 197 -4 442 0 246 3 447 6 447 3 0
74 -40 157 -89z m1563 -356 c0 -245 0 -444 -2 -442 -5 5 -352 604 -368 635
l-17 32 38 23 c117 69 339 196 343 197 3 0 6 -200 6 -445z m-466 208 c0 -9
-382 -678 -394 -691 -3 -2 -150 246 -197 333 -9 17 -60 104 -113 194 -53 90
-96 164 -96 165 0 2 180 3 400 3 220 0 400 -2 400 -4z m-631 -376 c105 -181
191 -332 191 -335 0 -8 -787 -9 -794 -1 -3 2 70 132 161 289 91 157 180 311
197 342 24 45 33 55 43 45 6 -7 97 -160 202 -340z m882 4 c107 -184 193 -336
191 -340 -2 -6 -756 -9 -784 -3 -17 4 -17 6 0 31 11 14 101 169 202 344 101
175 186 314 191 310 4 -4 94 -158 200 -342z m-683 -390 c9 -1 12 -53 12 -226
0 -124 -4 -225 -8 -225 -4 0 -12 4 -17 9 -6 5 -28 19 -50 31 -44 24 -532 310
-632 370 -34 21 -61 39 -58 41 3 3 714 3 753 0z m832 -1 c-1 -5 -751 -442
-769 -448 -5 -2 -8 94 -8 220 1 172 4 224 14 228 17 7 763 7 763 0z"/>
</g>
</svg>
