{
  "accessors": [
    {
      "bufferView": 1,
      "componentType": 5126,
      "count": 961,
      "max": [
        13.694987297058105,
        0.29835665225982666,
        13.619968414306641
      ],
      "min": [
        -13.69499397277832,
        -0.29835683107376099,
        -13.619976043701172
      ],
      "type": "VEC3"
    },
    {
      "bufferView": 1,
      "byteOffset": 11532,
      "componentType": 5126,
      "count": 961,
      "max": [
        1,
        0.99524575471878052,
        0.99452197551727295
      ],
      "min": [
        -1,
        -0.99524563550949097,
        -0.99452197551727295
      ],
      "type": "VEC3"
    },
    {
      "bufferView": 2,
      "componentType": 5126,
      "count": 961,
      "max": [
        0.99453878402709961,
        0.052164223045110703,
        1,
        1
      ],
      "min": [
        -0.99453878402709961,
        -0.052164260298013687,
        -1,
        1
      ],
      "type": "VEC4"
    },
    {
      "bufferView": 0,
      "componentType": 5125,
      "count": 5400,
      "max": [
        960
      ],
      "min": [
        0
      ],
      "type": "SCALAR"
    },
    {
      "bufferView": 1,
      "byteOffset": 23064,
      "componentType": 5126,
      "count": 240,
      "max": [
        3.5,
        3.5,
        3.5
      ],
      "min": [
        -3.5,
        -3.5,
        -3.5
      ],
      "type": "VEC3"
    },
    {
      "bufferView": 1,
      "byteOffset": 25944,
      "componentType": 5126,
      "count": 240,
      "max": [
        1,
        1,
        1
      ],
      "min": [
        -1,
        -1,
        -1
      ],
      "type": "VEC3"
    },
    {
      "bufferView": 2,
      "byteOffset": 15376,
      "componentType": 5126,
      "count": 240,
      "max": [
        1,
        4.0020270830609661e-07,
        1,
        1
      ],
      "min": [
        -4.0871773876460793e-07,
        -4.4277743427301175e-07,
        -1,
        1
      ],
      "type": "VEC4"
    },
    {
      "bufferView": 0,
      "byteOffset": 21600,
      "componentType": 5125,
      "count": 720,
      "max": [
        239
      ],
      "min": [
        0
      ],
      "type": "SCALAR"
    },
    {
      "bufferView": 1,
      "byteOffset": 28824,
      "componentType": 5126,
      "count": 150,
      "max": [
        3.5,
        3.5,
        3.5
      ],
      "min": [
        -3.5,
        -3.5,
        -3.5
      ],
      "type": "VEC3"
    },
    {
      "bufferView": 1,
      "byteOffset": 30624,
      "componentType": 5126,
      "count": 150,
      "max": [
        1,
        1,
        1
      ],
      "min": [
        -1,
        -1,
        -1
      ],
      "type": "VEC3"
    },
    {
      "bufferView": 2,
      "byteOffset": 19216,
      "componentType": 5126,
      "count": 150,
      "max": [
        1,
        3.3559150602749735e-14,
        1,
        1
      ],
      "min": [
        -2.0435884096059453e-07,
        -2.6847317432881178e-14,
        -1,
        1
      ],
      "type": "VEC4"
    },
    {
      "bufferView": 0,
      "byteOffset": 24480,
      "componentType": 5125,
      "count": 576,
      "max": [
        149
      ],
      "min": [
        0
      ],
      "type": "SCALAR"
    },
    {
      "bufferView": 1,
      "byteOffset": 32424,
      "componentType": 5126,
      "count": 961,
      "max": [
        13.694987297058105,
        0.29835665225982666,
        13.619968414306641
      ],
      "min": [
        -13.69499397277832,
        -0.29835683107376099,
        -13.619976043701172
      ],
      "type": "VEC3"
    },
    {
      "bufferView": 1,
      "byteOffset": 43956,
      "componentType": 5126,
      "count": 961,
      "max": [
        1,
        0.99524575471878052,
        0.99452197551727295
      ],
      "min": [
        -1,
        -0.99524563550949097,
        -0.99452197551727295
      ],
      "type": "VEC3"
    },
    {
      "bufferView": 2,
      "byteOffset": 21616,
      "componentType": 5126,
      "count": 961,
      "max": [
        0.99453878402709961,
        0.052164223045110703,
        1,
        1
      ],
      "min": [
        -0.99453878402709961,
        -0.052164260298013687,
        -1,
        1
      ],
      "type": "VEC4"
    },
    {
      "bufferView": 0,
      "byteOffset": 26784,
      "componentType": 5125,
      "count": 5400,
      "max": [
        960
      ],
      "min": [
        0
      ],
      "type": "SCALAR"
    },
    {
      "bufferView": 3,
      "componentType": 5126,
      "count": 74,
      "max": [
        2.5
      ],
      "min": [
        0.041666667908430099
      ],
      "type": "SCALAR"
    },
    {
      "bufferView": 4,
      "componentType": 5126,
      "count": 74,
      "max": [
        0.85346657037734985,
        0.85353744029998779,
        0.85333901643753052,
        0.85315471887588501
      ],
      "min": [
        -0.14643065631389618,
        -0.14635978639125824,
        -0.14604794979095459,
        -0.14623220264911652
      ],
      "type": "VEC4"
    },
    {
      "bufferView": 3,
      "byteOffset": 296,
      "componentType": 5126,
      "count": 74,
      "max": [
        2.5
      ],
      "min": [
        0.041666667908430099
      ],
      "type": "SCALAR"
    },
    {
      "bufferView": 4,
      "byteOffset": 1184,
      "componentType": 5126,
      "count": 74,
      "max": [
        0.85346657037734985,
        0.85333901643753052,
        0.85353744029998779,
        0.85315471887588501
      ],
      "min": [
        -0.11901295185089111,
        -0.70332163572311401,
        -0.82611972093582153,
        -0.47609227895736694
      ],
      "type": "VEC4"
    },
    {
      "bufferView": 3,
      "byteOffset": 592,
      "componentType": 5126,
      "count": 74,
      "max": [
        2.5
      ],
      "min": [
        0.041666667908430099
      ],
      "type": "SCALAR"
    },
    {
      "bufferView": 4,
      "byteOffset": 2368,
      "componentType": 5126,
      "count": 74,
      "max": [
        1,
        0.76978927850723267,
        0.76977765560150146,
        1
      ],
      "min": [
        -0.25701591372489929,
        -0.38400393724441528,
        -0.72947865724563599,
        -0.46399259567260742
      ],
      "type": "VEC4"
    }
  ],
  "animations": [
    {
      "channels": [
        {
          "sampler": 0,
          "target": {
            "node": 5,
            "path": "rotation"
          }
        },
        {
          "sampler": 1,
          "target": {
            "node": 7,
            "path": "rotation"
          }
        },
        {
          "sampler": 2,
          "target": {
            "node": 10,
            "path": "rotation"
          }
        }
      ],
      "name": "MagoZB2",
      "samplers": [
        {
          "input": 16,
          "interpolation": "LINEAR",
          "output": 17
        },
        {
          "input": 18,
          "interpolation": "LINEAR",
          "output": 19
        },
        {
          "input": 20,
          "interpolation": "LINEAR",
          "output": 21
        }
      ]
    }
  ],
  "asset": {
    "extras": {
      "author": "Fernando H. C. Menezes (https://sketchfab.com/fhcgyn)",
      "license": "CC-BY-4.0 (http://creativecommons.org/licenses/by/4.0/)",
      "source": "https://sketchfab.com/models/7b64c8e2615c41a8b7d151c78f3eacd2",
      "title": "Free AI!"
    },
    "generator": "Sketchfab-3.18.6",
    "version": "2.0"
  },
  "bufferViews": [
    {
      "buffer": 0,
      "byteLength": 48384,
      "byteOffset": 0,
      "name": "floatBufferViews",
      "target": 34963
    },
    {
      "buffer": 0,
      "byteLength": 55488,
      "byteOffset": 48384,
      "byteStride": 12,
      "name": "floatBufferViews",
      "target": 34962
    },
    {
      "buffer": 0,
      "byteLength": 36992,
      "byteOffset": 103872,
      "byteStride": 16,
      "name": "floatBufferViews",
      "target": 34962
    },
    {
      "buffer": 0,
      "byteLength": 888,
      "byteOffset": 140864,
      "name": "floatBufferViews"
    },
    {
      "buffer": 0,
      "byteLength": 3552,
      "byteOffset": 141752,
      "byteStride": 16,
      "name": "floatBufferViews"
    }
  ],
  "buffers": [
    {
      "byteLength": 145304,
      "uri": "scene.bin"
    }
  ],
  "materials": [
    {
      "alphaMode": "BLEND",
      "doubleSided": true,
      "emissiveFactor": [
        1,
        0.286060184,
        0.093334734000000003
      ],
      "name": "Mat_Bamb1",
      "pbrMetallicRoughness": {
        "baseColorFactor": [
          0,
          0,
          0,
          0.69340701220000001
        ],
        "metallicFactor": 1,
        "roughnessFactor": 0
      }
    },
    {
      "doubleSided": true,
      "emissiveFactor": [
        1,
        0.61692107595659906,
        0
      ],
      "name": "Mat_Cubo",
      "pbrMetallicRoughness": {
        "baseColorFactor": [
          0.50720229032802577,
          0.38083320797977122,
          0.0016367159926530717,
          1
        ],
        "metallicFactor": 0.91634908540000004,
        "roughnessFactor": 0.59999999999999998
      }
    },
    {
      "alphaMode": "BLEND",
      "doubleSided": true,
      "emissiveFactor": [
        0.018105216225828474,
        0.26687797167900157,
        0.39846838782760652
      ],
      "name": "Mat_Vidro",
      "pbrMetallicRoughness": {
        "baseColorFactor": [
          0.00099812448750564043,
          0,
          0,
          0.74828506100000003
        ],
        "metallicFactor": 0,
        "roughnessFactor": 0.2029344512
      }
    },
    {
      "doubleSided": true,
      "emissiveFactor": [
        1,
        0.16949922969287812,
        0.03845740648832538
      ],
      "name": "Mat_Bamb2",
      "pbrMetallicRoughness": {
        "baseColorFactor": [
          0,
          0,
          0,
          1
        ],
        "metallicFactor": 1,
        "roughnessFactor": 0
      }
    }
  ],
  "meshes": [
    {
      "name": "Bambole1_Mat_Bamb1_0",
      "primitives": [
        {
          "attributes": {
            "NORMAL": 1,
            "POSITION": 0,
            "TANGENT": 2
          },
          "indices": 3,
          "material": 0,
          "mode": 4
        }
      ]
    },
    {
      "name": "Cubo_Mat_Cubo_0",
      "primitives": [
        {
          "attributes": {
            "NORMAL": 5,
            "POSITION": 4,
            "TANGENT": 6
          },
          "indices": 7,
          "material": 1,
          "mode": 4
        }
      ]
    },
    {
      "name": "Cubo_Mat_Vidro_0",
      "primitives": [
        {
          "attributes": {
            "NORMAL": 9,
            "POSITION": 8,
            "TANGENT": 10
          },
          "indices": 11,
          "material": 2,
          "mode": 4
        }
      ]
    },
    {
      "name": "Bambole2_Mat_Bamb2_0",
      "primitives": [
        {
          "attributes": {
            "NORMAL": 13,
            "POSITION": 12,
            "TANGENT": 14
          },
          "indices": 15,
          "material": 3,
          "mode": 4
        }
      ]
    }
  ],
  "nodes": [
    {
      "children": [
        1
      ],
      "name": "RootNode (gltf orientation matrix)",
      "rotation": [
        -0.70710678118654746,
        -0,
        -0,
        0.70710678118654757
      ],
      "scale": [
        0.1,
        0.1,
        0.1
            ]
    },
    {
      "children": [
        2
      ],
      "name": "RootNode (model correction matrix)"
    },
    {
      "children": [
        3
      ],
      "matrix": [
        1,
        0,
        0,
        0,
        0,
        -1,
        0,
        0,
        0,
        0,
        -1,
        0,
        0,
        0,
        0,
        1
      ],
      "name": "d8f6d26374f5400c8f07430223dcc3db.fbx"
    },
    {
      "children": [
        4
      ],
      "name": ""
    },
    {
      "children": [
        5,
        7,
        10
      ],
      "name": "RootNode"
    },
    {
      "children": [
        6
      ],
      "name": "Bambole1",
      "rotation": [
        0.7071068286895752,
        0,
        0,
        0.7071068286895752
      ],
      "translation": [
        0.20618870854377747,
        -0.040308021008968353,
        0
      ]
    },
    {
      "mesh": 0,
      "name": "Bambole1_Mat_Bamb1_0"
    },
    {
      "children": [
        8,
        9
      ],
      "name": "Cubo",
      "rotation": [
        0.7071068286895752,
        0,
        0,
        0.7071068286895752
      ]
    },
    {
      "mesh": 1,
      "name": "Cubo_Mat_Cubo_0"
    },
    {
      "mesh": 2,
      "name": "Cubo_Mat_Vidro_0"
    },
    {
      "children": [
        11
      ],
      "name": "Bambole2",
      "rotation": [
        1,
        0,
        0,
        6.1232342629258393e-17
      ],
      "translation": [
        0.20618870854377747,
        -0.040308021008968353,
        0
      ]
    },
    {
      "mesh": 3,
      "name": "Bambole2_Mat_Bamb2_0"
    }
  ],
  "scene": 0,
  "scenes": [
    {
      "name": "OSG_Scene",
      "nodes": [
        0
      ]
    }
  ]
}

